<mxfile host="app.diagrams.net" modified="2024-03-13T16:16:03.408Z" agent="Mozilla/5.0 (Windows NT 10.0; Win64; x64) AppleWebKit/537.36 (KHTML, like Gecko) Chrome/122.0.0.0 Safari/537.36 Edg/122.0.0.0" etag="Ls2KOPztE4XhruM69NzT" version="24.0.5" type="github" pages="2">
  <diagram id="kgpKYQtTHZ0yAKxKKP6v" name="Page-1">
    <mxGraphModel dx="762" dy="462" grid="1" gridSize="10" guides="1" tooltips="1" connect="1" arrows="1" fold="1" page="1" pageScale="1" pageWidth="850" pageHeight="1100" math="0" shadow="0">
      <root>
        <mxCell id="0" />
        <mxCell id="1" parent="0" />
      </root>
    </mxGraphModel>
  </diagram>
  <diagram id="HINjqvhtpdeOXOZjh3Ra" name="Trang-2">
    <mxGraphModel dx="547" dy="66" grid="0" gridSize="10" guides="1" tooltips="1" connect="1" arrows="1" fold="1" page="0" pageScale="1" pageWidth="850" pageHeight="1100" math="0" shadow="0">
      <root>
        <mxCell id="0" />
        <mxCell id="1" parent="0" />
        <mxCell id="YrLgs8H5snsHIOQGFjwJ-8" style="edgeStyle=none;curved=1;rounded=0;orthogonalLoop=1;jettySize=auto;html=1;exitX=0.5;exitY=1;exitDx=0;exitDy=0;fontSize=12;startSize=8;endSize=8;" edge="1" parent="1" source="YrLgs8H5snsHIOQGFjwJ-1">
          <mxGeometry relative="1" as="geometry">
            <mxPoint x="127" y="143.33334350585938" as="targetPoint" />
          </mxGeometry>
        </mxCell>
        <mxCell id="YrLgs8H5snsHIOQGFjwJ-1" value="Phát triển branding công ty TNHH Phú Mạnh trên sàn thương mại điện tử Shopee" style="rounded=0;whiteSpace=wrap;html=1;" vertex="1" parent="1">
          <mxGeometry x="-22" y="46" width="298" height="60" as="geometry" />
        </mxCell>
        <mxCell id="YrLgs8H5snsHIOQGFjwJ-2" value="Digital maketing còn non yếu" style="rounded=0;whiteSpace=wrap;html=1;" vertex="1" parent="1">
          <mxGeometry x="-118" y="191" width="120" height="35" as="geometry" />
        </mxCell>
        <mxCell id="YrLgs8H5snsHIOQGFjwJ-3" value="Môi trường cạnh tranh cao, nhiều kênh cạnh tranh không lành mạnh" style="rounded=0;whiteSpace=wrap;html=1;" vertex="1" parent="1">
          <mxGeometry x="171" y="191" width="199" height="35" as="geometry" />
        </mxCell>
        <mxCell id="YrLgs8H5snsHIOQGFjwJ-4" value="Hạn chế về nguồn vốn và quản lí rủi ro" style="rounded=0;whiteSpace=wrap;html=1;" vertex="1" parent="1">
          <mxGeometry x="24" y="191" width="120" height="35" as="geometry" />
        </mxCell>
        <mxCell id="YrLgs8H5snsHIOQGFjwJ-6" value="Khó khăn trong việc tiếp cận khách hàng và tìm kiếm khách hàng tiềm năng" style="rounded=0;whiteSpace=wrap;html=1;" vertex="1" parent="1">
          <mxGeometry x="392" y="191" width="239" height="35" as="geometry" />
        </mxCell>
        <mxCell id="YrLgs8H5snsHIOQGFjwJ-7" value="Thiếu nhân sự chất lượng cao&amp;nbsp;&amp;nbsp;" style="rounded=0;whiteSpace=wrap;html=1;" vertex="1" parent="1">
          <mxGeometry x="-258" y="191" width="120" height="35" as="geometry" />
        </mxCell>
        <mxCell id="YrLgs8H5snsHIOQGFjwJ-9" value="" style="endArrow=none;html=1;rounded=0;fontSize=12;startSize=8;endSize=8;curved=1;" edge="1" parent="1">
          <mxGeometry width="50" height="50" relative="1" as="geometry">
            <mxPoint x="-199" y="144" as="sourcePoint" />
            <mxPoint x="526" y="144" as="targetPoint" />
          </mxGeometry>
        </mxCell>
        <mxCell id="YrLgs8H5snsHIOQGFjwJ-11" value="" style="endArrow=classic;html=1;rounded=0;fontSize=12;startSize=8;endSize=8;curved=1;entryX=0.5;entryY=0;entryDx=0;entryDy=0;" edge="1" parent="1">
          <mxGeometry width="50" height="50" relative="1" as="geometry">
            <mxPoint x="-198.24" y="143" as="sourcePoint" />
            <mxPoint x="-198.24" y="191" as="targetPoint" />
          </mxGeometry>
        </mxCell>
        <mxCell id="YrLgs8H5snsHIOQGFjwJ-12" value="" style="endArrow=classic;html=1;rounded=0;fontSize=12;startSize=8;endSize=8;curved=1;entryX=0.5;entryY=0;entryDx=0;entryDy=0;" edge="1" parent="1">
          <mxGeometry width="50" height="50" relative="1" as="geometry">
            <mxPoint x="276" y="146" as="sourcePoint" />
            <mxPoint x="276" y="194" as="targetPoint" />
          </mxGeometry>
        </mxCell>
        <mxCell id="YrLgs8H5snsHIOQGFjwJ-13" value="" style="endArrow=classic;html=1;rounded=0;fontSize=12;startSize=8;endSize=8;curved=1;entryX=0.5;entryY=0;entryDx=0;entryDy=0;" edge="1" parent="1">
          <mxGeometry width="50" height="50" relative="1" as="geometry">
            <mxPoint x="526" y="143" as="sourcePoint" />
            <mxPoint x="526" y="191" as="targetPoint" />
          </mxGeometry>
        </mxCell>
        <mxCell id="YrLgs8H5snsHIOQGFjwJ-14" value="" style="endArrow=classic;html=1;rounded=0;fontSize=12;startSize=8;endSize=8;curved=1;entryX=0.5;entryY=0;entryDx=0;entryDy=0;" edge="1" parent="1">
          <mxGeometry width="50" height="50" relative="1" as="geometry">
            <mxPoint x="86" y="143" as="sourcePoint" />
            <mxPoint x="86" y="191" as="targetPoint" />
          </mxGeometry>
        </mxCell>
        <mxCell id="YrLgs8H5snsHIOQGFjwJ-15" value="" style="endArrow=classic;html=1;rounded=0;fontSize=12;startSize=8;endSize=8;curved=1;entryX=0.5;entryY=0;entryDx=0;entryDy=0;" edge="1" parent="1">
          <mxGeometry width="50" height="50" relative="1" as="geometry">
            <mxPoint x="-58.41999999999999" y="143" as="sourcePoint" />
            <mxPoint x="-58.41999999999999" y="191" as="targetPoint" />
          </mxGeometry>
        </mxCell>
        <mxCell id="YrLgs8H5snsHIOQGFjwJ-21" value="Địa phương chưa phát triển nhiều trường đại học, cơ sở đào tạo chuyên nghiệp&amp;nbsp;" style="rounded=0;whiteSpace=wrap;html=1;" vertex="1" parent="1">
          <mxGeometry x="-210" y="242.5" width="92" height="112" as="geometry" />
        </mxCell>
        <mxCell id="YrLgs8H5snsHIOQGFjwJ-22" value="Truyền thông số chưa thực sự phát triển nên nhân sự ngành này có kinh nghiệm ít" style="rounded=0;whiteSpace=wrap;html=1;" vertex="1" parent="1">
          <mxGeometry x="-210" y="378" width="92" height="112" as="geometry" />
        </mxCell>
        <mxCell id="YrLgs8H5snsHIOQGFjwJ-25" style="edgeStyle=none;curved=1;rounded=0;orthogonalLoop=1;jettySize=auto;html=1;entryX=0;entryY=0.5;entryDx=0;entryDy=0;fontSize=12;startSize=8;endSize=8;" edge="1" parent="1">
          <mxGeometry relative="1" as="geometry">
            <mxPoint x="-350" y="354.5" as="sourcePoint" />
            <mxPoint x="-350" y="354.5" as="targetPoint" />
          </mxGeometry>
        </mxCell>
        <mxCell id="YrLgs8H5snsHIOQGFjwJ-26" value="Digital maketing ở việt nam chỉ tập chung vào chạy ads không phù hợp với cách tiếp cận khách hàng nước ngoài" style="rounded=0;whiteSpace=wrap;html=1;" vertex="1" parent="1">
          <mxGeometry x="-68" y="242.5" width="92" height="119" as="geometry" />
        </mxCell>
        <mxCell id="YrLgs8H5snsHIOQGFjwJ-27" value="Đội ngũ maketing làm việc kém hiệu quả, thiếu chuyên nghiệp&amp;nbsp;" style="rounded=0;whiteSpace=wrap;html=1;" vertex="1" parent="1">
          <mxGeometry x="-68" y="378" width="92" height="112" as="geometry" />
        </mxCell>
        <mxCell id="YrLgs8H5snsHIOQGFjwJ-28" value="Nguồn vốn công ty chưa dồi dào" style="rounded=0;whiteSpace=wrap;html=1;" vertex="1" parent="1">
          <mxGeometry x="79" y="242.5" width="92" height="65" as="geometry" />
        </mxCell>
        <mxCell id="YrLgs8H5snsHIOQGFjwJ-29" value="Thủ tục vay mượn phức tạp" style="rounded=0;whiteSpace=wrap;html=1;" vertex="1" parent="1">
          <mxGeometry x="81" y="331" width="92" height="65" as="geometry" />
        </mxCell>
        <mxCell id="YrLgs8H5snsHIOQGFjwJ-30" value="Nhiều shop nhái thương hiệu, nhãn mác, sản phẩm" style="rounded=0;whiteSpace=wrap;html=1;" vertex="1" parent="1">
          <mxGeometry x="259" y="331" width="92" height="65" as="geometry" />
        </mxCell>
        <mxCell id="YrLgs8H5snsHIOQGFjwJ-31" value="Cạnh tranh gắt gao với hàng trung quốc&amp;nbsp;&amp;nbsp;" style="rounded=0;whiteSpace=wrap;html=1;" vertex="1" parent="1">
          <mxGeometry x="259" y="242.5" width="92" height="65" as="geometry" />
        </mxCell>
        <mxCell id="YrLgs8H5snsHIOQGFjwJ-32" value="Kinh nghiệm phát triển ecomer chưa nhiều" style="rounded=0;whiteSpace=wrap;html=1;" vertex="1" parent="1">
          <mxGeometry x="489" y="242.5" width="92" height="65" as="geometry" />
        </mxCell>
        <mxCell id="YrLgs8H5snsHIOQGFjwJ-33" value="Sự khác biệt về văn hóa và ngôn ngữ với khách hàng nước ngoài tạo nên rào cản&amp;nbsp;&amp;nbsp;" style="rounded=0;whiteSpace=wrap;html=1;" vertex="1" parent="1">
          <mxGeometry x="484" y="327" width="92" height="97" as="geometry" />
        </mxCell>
        <mxCell id="YrLgs8H5snsHIOQGFjwJ-34" value="Sản phẩm chất lượng chưa vượt trôi so với các sản phẩm cùng ngành" style="rounded=0;whiteSpace=wrap;html=1;" vertex="1" parent="1">
          <mxGeometry x="259" y="427" width="92" height="97" as="geometry" />
        </mxCell>
        <mxCell id="YrLgs8H5snsHIOQGFjwJ-35" value="" style="endArrow=none;html=1;rounded=0;fontSize=12;startSize=8;endSize=8;curved=1;entryX=0.127;entryY=1.048;entryDx=0;entryDy=0;entryPerimeter=0;" edge="1" parent="1">
          <mxGeometry width="50" height="50" relative="1" as="geometry">
            <mxPoint x="-244" y="435" as="sourcePoint" />
            <mxPoint x="-243.76" y="226.00000000000006" as="targetPoint" />
          </mxGeometry>
        </mxCell>
        <mxCell id="YrLgs8H5snsHIOQGFjwJ-36" value="" style="endArrow=classic;html=1;rounded=0;fontSize=12;startSize=8;endSize=8;curved=1;entryX=0;entryY=0.5;entryDx=0;entryDy=0;" edge="1" parent="1" target="YrLgs8H5snsHIOQGFjwJ-22">
          <mxGeometry width="50" height="50" relative="1" as="geometry">
            <mxPoint x="-244" y="434" as="sourcePoint" />
            <mxPoint x="-264" y="439" as="targetPoint" />
          </mxGeometry>
        </mxCell>
        <mxCell id="YrLgs8H5snsHIOQGFjwJ-37" value="" style="endArrow=classic;html=1;rounded=0;fontSize=12;startSize=8;endSize=8;curved=1;entryX=0;entryY=0.5;entryDx=0;entryDy=0;" edge="1" parent="1">
          <mxGeometry width="50" height="50" relative="1" as="geometry">
            <mxPoint x="-244" y="301.7" as="sourcePoint" />
            <mxPoint x="-210" y="301.7" as="targetPoint" />
          </mxGeometry>
        </mxCell>
        <mxCell id="YrLgs8H5snsHIOQGFjwJ-38" value="" style="endArrow=none;html=1;rounded=0;fontSize=12;startSize=8;endSize=8;curved=1;entryX=0.127;entryY=1.048;entryDx=0;entryDy=0;entryPerimeter=0;" edge="1" parent="1">
          <mxGeometry width="50" height="50" relative="1" as="geometry">
            <mxPoint x="-100" y="435" as="sourcePoint" />
            <mxPoint x="-99.75999999999999" y="226.00000000000006" as="targetPoint" />
          </mxGeometry>
        </mxCell>
        <mxCell id="YrLgs8H5snsHIOQGFjwJ-39" value="" style="endArrow=classic;html=1;rounded=0;fontSize=12;startSize=8;endSize=8;curved=1;entryX=0;entryY=0.5;entryDx=0;entryDy=0;" edge="1" parent="1">
          <mxGeometry width="50" height="50" relative="1" as="geometry">
            <mxPoint x="-99" y="298" as="sourcePoint" />
            <mxPoint x="-68" y="298.2" as="targetPoint" />
          </mxGeometry>
        </mxCell>
        <mxCell id="YrLgs8H5snsHIOQGFjwJ-40" value="" style="endArrow=classic;html=1;rounded=0;fontSize=12;startSize=8;endSize=8;curved=1;entryX=0;entryY=0.5;entryDx=0;entryDy=0;" edge="1" parent="1">
          <mxGeometry width="50" height="50" relative="1" as="geometry">
            <mxPoint x="-99" y="433.79" as="sourcePoint" />
            <mxPoint x="-68" y="433.99" as="targetPoint" />
          </mxGeometry>
        </mxCell>
        <mxCell id="YrLgs8H5snsHIOQGFjwJ-41" value="" style="endArrow=none;html=1;rounded=0;fontSize=12;startSize=8;endSize=8;curved=1;entryX=0.127;entryY=1.048;entryDx=0;entryDy=0;entryPerimeter=0;" edge="1" parent="1">
          <mxGeometry width="50" height="50" relative="1" as="geometry">
            <mxPoint x="49" y="366" as="sourcePoint" />
            <mxPoint x="49.24000000000001" y="226.00000000000006" as="targetPoint" />
          </mxGeometry>
        </mxCell>
        <mxCell id="YrLgs8H5snsHIOQGFjwJ-42" value="" style="endArrow=classic;html=1;rounded=0;fontSize=12;startSize=8;endSize=8;curved=1;entryX=0;entryY=0.5;entryDx=0;entryDy=0;" edge="1" parent="1">
          <mxGeometry width="50" height="50" relative="1" as="geometry">
            <mxPoint x="49" y="278" as="sourcePoint" />
            <mxPoint x="79" y="278.2" as="targetPoint" />
          </mxGeometry>
        </mxCell>
        <mxCell id="YrLgs8H5snsHIOQGFjwJ-43" value="" style="endArrow=classic;html=1;rounded=0;fontSize=12;startSize=8;endSize=8;curved=1;entryX=0;entryY=0.5;entryDx=0;entryDy=0;" edge="1" parent="1">
          <mxGeometry width="50" height="50" relative="1" as="geometry">
            <mxPoint x="49" y="366" as="sourcePoint" />
            <mxPoint x="81" y="366.2" as="targetPoint" />
          </mxGeometry>
        </mxCell>
        <mxCell id="YrLgs8H5snsHIOQGFjwJ-44" value="" style="endArrow=none;html=1;rounded=0;fontSize=12;startSize=8;endSize=8;curved=1;entryX=0.127;entryY=1.048;entryDx=0;entryDy=0;entryPerimeter=0;" edge="1" parent="1">
          <mxGeometry width="50" height="50" relative="1" as="geometry">
            <mxPoint x="210" y="476" as="sourcePoint" />
            <mxPoint x="210.24" y="226.00000000000006" as="targetPoint" />
          </mxGeometry>
        </mxCell>
        <mxCell id="YrLgs8H5snsHIOQGFjwJ-45" value="" style="endArrow=classic;html=1;rounded=0;fontSize=12;startSize=8;endSize=8;curved=1;" edge="1" parent="1">
          <mxGeometry width="50" height="50" relative="1" as="geometry">
            <mxPoint x="210" y="278" as="sourcePoint" />
            <mxPoint x="258" y="278" as="targetPoint" />
          </mxGeometry>
        </mxCell>
        <mxCell id="YrLgs8H5snsHIOQGFjwJ-46" value="" style="endArrow=classic;html=1;rounded=0;fontSize=12;startSize=8;endSize=8;curved=1;" edge="1" parent="1">
          <mxGeometry width="50" height="50" relative="1" as="geometry">
            <mxPoint x="211" y="363.29" as="sourcePoint" />
            <mxPoint x="259" y="363.29" as="targetPoint" />
          </mxGeometry>
        </mxCell>
        <mxCell id="YrLgs8H5snsHIOQGFjwJ-47" value="" style="endArrow=classic;html=1;rounded=0;fontSize=12;startSize=8;endSize=8;curved=1;" edge="1" parent="1">
          <mxGeometry width="50" height="50" relative="1" as="geometry">
            <mxPoint x="209" y="475" as="sourcePoint" />
            <mxPoint x="259" y="475" as="targetPoint" />
          </mxGeometry>
        </mxCell>
        <mxCell id="YrLgs8H5snsHIOQGFjwJ-48" value="" style="endArrow=none;html=1;rounded=0;fontSize=12;startSize=8;endSize=8;curved=1;entryX=0.127;entryY=1.048;entryDx=0;entryDy=0;entryPerimeter=0;" edge="1" parent="1">
          <mxGeometry width="50" height="50" relative="1" as="geometry">
            <mxPoint x="435" y="387" as="sourcePoint" />
            <mxPoint x="435.24" y="226.00000000000006" as="targetPoint" />
          </mxGeometry>
        </mxCell>
        <mxCell id="YrLgs8H5snsHIOQGFjwJ-49" value="" style="endArrow=classic;html=1;rounded=0;fontSize=12;startSize=8;endSize=8;curved=1;entryX=0;entryY=0.5;entryDx=0;entryDy=0;" edge="1" parent="1" target="YrLgs8H5snsHIOQGFjwJ-32">
          <mxGeometry width="50" height="50" relative="1" as="geometry">
            <mxPoint x="435" y="275" as="sourcePoint" />
            <mxPoint x="487" y="274.38" as="targetPoint" />
          </mxGeometry>
        </mxCell>
        <mxCell id="YrLgs8H5snsHIOQGFjwJ-50" value="" style="endArrow=classic;html=1;rounded=0;fontSize=12;startSize=8;endSize=8;curved=1;" edge="1" parent="1">
          <mxGeometry width="50" height="50" relative="1" as="geometry">
            <mxPoint x="435" y="386" as="sourcePoint" />
            <mxPoint x="483" y="386" as="targetPoint" />
          </mxGeometry>
        </mxCell>
      </root>
    </mxGraphModel>
  </diagram>
</mxfile>
